<svg width="269" height="173" viewBox="0 0 269 173" fill="none" xmlns="http://www.w3.org/2000/svg">
<g opacity="0.3">
<path opacity="0.3" d="M194.354 1V115.133H231.426V1H194.354ZM229.559 3.53849V20.3821H214.112V3.53849H229.559ZM211.809 3.53849V20.3821H196.202V3.53849H211.809ZM196.202 23.0534H211.809V39.7679H196.202V23.0534ZM229.54 112.602H196.202V42.6593H229.54V112.602ZM214.112 39.7679V23.0723H229.54V39.7869L214.112 39.7679Z" stroke="black" stroke-linecap="round" stroke-linejoin="round"/>
<path opacity="0.3" d="M231.263 1V115.133H268.346V1H231.263ZM266.472 3.53849V20.3821H251.04V3.53849H266.472ZM248.736 3.53849V20.3821H233.13V3.53849H248.736ZM233.13 23.0534H248.736V39.7679H233.13V23.0534ZM266.472 112.602H233.13V42.6593H266.472V112.602ZM251.04 39.7679V23.0723H266.472V39.7869L251.04 39.7679Z" stroke="black" stroke-linecap="round" stroke-linejoin="round"/>
<path opacity="0.3" d="M221.242 61.6125L211.934 73.197" stroke="black" stroke-linecap="round" stroke-linejoin="round"/>
<path opacity="0.3" d="M223.553 58.7366L222.073 60.5769" stroke="black" stroke-linecap="round" stroke-linejoin="round"/>
<path opacity="0.3" d="M201.814 81.6436L199.909 83.8861" stroke="black" stroke-linecap="round" stroke-linejoin="round"/>
<path opacity="0.3" d="M214.177 67.1182L203.241 79.9662" stroke="black" stroke-linecap="round" stroke-linejoin="round"/>
<path opacity="0.3" d="M258.746 65.1492L249.438 76.7336" stroke="black" stroke-linecap="round" stroke-linejoin="round"/>
<path opacity="0.3" d="M261.057 62.2727L259.577 64.1168" stroke="black" stroke-linecap="round" stroke-linejoin="round"/>
<path opacity="0.3" d="M239.319 85.1799L237.414 87.4225" stroke="black" stroke-linecap="round" stroke-linejoin="round"/>
<path opacity="0.3" d="M251.681 70.6548L240.745 83.5066" stroke="black" stroke-linecap="round" stroke-linejoin="round"/>
<path opacity="0.3" d="M263.045 6.18335L258.591 11.7308" stroke="black" stroke-linecap="round" stroke-linejoin="round"/>
<path opacity="0.3" d="M264.15 4.80957L263.44 5.68988" stroke="black" stroke-linecap="round" stroke-linejoin="round"/>
<path opacity="0.3" d="M253.745 15.7717L252.834 16.8456" stroke="black" stroke-linecap="round" stroke-linejoin="round"/>
<path opacity="0.3" d="M259.661 8.82031L254.428 14.9711" stroke="black" stroke-linecap="round" stroke-linejoin="round"/>
<path opacity="0.3" d="M245.659 6.18335L241.205 11.7308" stroke="black" stroke-linecap="round" stroke-linejoin="round"/>
<path opacity="0.3" d="M246.763 4.80957L246.058 5.68988" stroke="black" stroke-linecap="round" stroke-linejoin="round"/>
<path opacity="0.3" d="M236.359 15.7717L235.448 16.8456" stroke="black" stroke-linecap="round" stroke-linejoin="round"/>
<path opacity="0.3" d="M242.278 8.82031L237.042 14.9711" stroke="black" stroke-linecap="round" stroke-linejoin="round"/>
<path opacity="0.3" d="M245.659 26.958L241.205 32.5017" stroke="black" stroke-linecap="round" stroke-linejoin="round"/>
<path opacity="0.3" d="M246.763 25.5806L246.058 26.4647" stroke="black" stroke-linecap="round" stroke-linejoin="round"/>
<path opacity="0.3" d="M236.359 36.5464L235.448 37.6202" stroke="black" stroke-linecap="round" stroke-linejoin="round"/>
<path opacity="0.3" d="M242.278 29.595L237.042 35.7458" stroke="black" stroke-linecap="round" stroke-linejoin="round"/>
<path opacity="0.3" d="M261.163 26.958L256.709 32.5017" stroke="black" stroke-linecap="round" stroke-linejoin="round"/>
<path opacity="0.3" d="M262.271 25.5806L261.562 26.4647" stroke="black" stroke-linecap="round" stroke-linejoin="round"/>
<path opacity="0.3" d="M251.867 36.5464L250.952 37.6202" stroke="black" stroke-linecap="round" stroke-linejoin="round"/>
<path opacity="0.3" d="M257.782 29.595L252.55 35.7458" stroke="black" stroke-linecap="round" stroke-linejoin="round"/>
<path opacity="0.3" d="M226.395 6.18335L221.94 11.7308" stroke="black" stroke-linecap="round" stroke-linejoin="round"/>
<path opacity="0.3" d="M227.499 4.80957L226.793 5.68988" stroke="black" stroke-linecap="round" stroke-linejoin="round"/>
<path opacity="0.3" d="M217.094 15.7717L216.184 16.8456" stroke="black" stroke-linecap="round" stroke-linejoin="round"/>
<path opacity="0.3" d="M223.014 8.82031L217.778 14.9711" stroke="black" stroke-linecap="round" stroke-linejoin="round"/>
<path opacity="0.3" d="M226.395 26.4761L221.94 32.0198" stroke="black" stroke-linecap="round" stroke-linejoin="round"/>
<path opacity="0.3" d="M227.499 25.0984L226.793 25.9787" stroke="black" stroke-linecap="round" stroke-linejoin="round"/>
<path opacity="0.3" d="M217.094 36.0645L216.184 37.1345" stroke="black" stroke-linecap="round" stroke-linejoin="round"/>
<path opacity="0.3" d="M223.014 29.1094L217.778 35.2602" stroke="black" stroke-linecap="round" stroke-linejoin="round"/>
<path opacity="0.3" d="M209.479 26.4761L205.024 32.0198" stroke="black" stroke-linecap="round" stroke-linejoin="round"/>
<path opacity="0.3" d="M210.583 25.0984L209.877 25.9787" stroke="black" stroke-linecap="round" stroke-linejoin="round"/>
<path opacity="0.3" d="M200.179 36.0645L199.268 37.1345" stroke="black" stroke-linecap="round" stroke-linejoin="round"/>
<path opacity="0.3" d="M206.098 29.1094L200.862 35.2602" stroke="black" stroke-linecap="round" stroke-linejoin="round"/>
<path opacity="0.3" d="M208.303 6.18335L203.848 11.7308" stroke="black" stroke-linecap="round" stroke-linejoin="round"/>
<path opacity="0.3" d="M209.411 4.80957L208.701 5.68988" stroke="black" stroke-linecap="round" stroke-linejoin="round"/>
<path opacity="0.3" d="M199.006 15.7717L198.092 16.8456" stroke="black" stroke-linecap="round" stroke-linejoin="round"/>
<path opacity="0.3" d="M204.922 8.82031L199.689 14.9711" stroke="black" stroke-linecap="round" stroke-linejoin="round"/>
</g>
<g opacity="0.3">
<path opacity="0.3" d="M88.4887 1.67993H25.1365V53.4742H88.4887V1.67993Z" stroke="black" stroke-linecap="round" stroke-linejoin="round"/>
<path opacity="0.3" d="M62.4389 48.0305C64.5144 47.1708 65.5 44.7913 64.6403 42.7158C63.7806 40.6403 61.4011 39.6547 59.3257 40.5144C57.2502 41.3741 56.2646 43.7536 57.1243 45.8291C57.984 47.9046 60.3634 48.8902 62.4389 48.0305Z" stroke="black" stroke-linecap="round" stroke-linejoin="round"/>
<path opacity="0.3" d="M64.5192 17.7304C64.52 18.1118 64.4076 18.4849 64.1962 18.8024C63.9849 19.1199 63.6841 19.3675 63.3319 19.514C62.9798 19.6605 62.5921 19.6992 62.2179 19.6252C61.8438 19.5513 61.4999 19.368 61.23 19.0986C60.96 18.8291 60.7761 18.4857 60.7014 18.1117C60.6267 17.7377 60.6646 17.3499 60.8104 16.9974C60.9562 16.645 61.2033 16.3437 61.5203 16.1318C61.8374 15.9198 62.2102 15.8066 62.5916 15.8066C63.1022 15.8066 63.5919 16.0092 63.9533 16.3699C64.3147 16.7305 64.5182 17.2199 64.5192 17.7304V17.7304Z" stroke="black" stroke-linecap="round" stroke-linejoin="round"/>
<path opacity="0.3" d="M29.4166 26.5069C30.1249 26.5069 30.6991 25.9327 30.6991 25.2244C30.6991 24.5161 30.1249 23.9419 29.4166 23.9419C28.7082 23.9419 28.134 24.5161 28.134 25.2244C28.134 25.9327 28.7082 26.5069 29.4166 26.5069Z" stroke="black" stroke-linecap="round" stroke-linejoin="round"/>
<path opacity="0.3" d="M41.4033 44.4852C42.5852 44.4852 43.5433 43.5271 43.5433 42.3451C43.5433 41.1632 42.5852 40.2051 41.4033 40.2051C40.2213 40.2051 39.2632 41.1632 39.2632 42.3451C39.2632 43.5271 40.2213 44.4852 41.4033 44.4852Z" stroke="black" stroke-linecap="round" stroke-linejoin="round"/>
<path opacity="0.3" d="M88.4887 46.1319L86.2651 44.9101C72.9086 37.5716 71.8234 18.7929 84.2465 9.95939L88.4887 6.92383" stroke="black" stroke-linecap="round" stroke-linejoin="round"/>
<path opacity="0.3" d="M51.8572 53.4742C49.0819 42.8153 49.5643 31.5693 53.2422 21.1872C56.2133 12.6838 59.5903 6.34711 62.7701 1.67993" stroke="black" stroke-linecap="round" stroke-linejoin="round"/>
<path opacity="0.3" d="M36.3491 53.4742C35.3322 45.7905 35.188 31.7054 42.849 14.6911C45.3534 9.12086 47.7553 4.89383 49.9712 1.67993" stroke="black" stroke-linecap="round" stroke-linejoin="round"/>
<path opacity="0.3" d="M25.1213 17.5939C28.9158 13.0064 34.1483 6.72276 38.5916 1.67993" stroke="black" stroke-linecap="round" stroke-linejoin="round"/>
</g>
<path d="M34.1372 139.661V100.643" stroke="#5E5E5E" stroke-width="4" stroke-miterlimit="10"/>
<path d="M29.2842 140.446V86.5613" stroke="#5E5E5E" stroke-width="4" stroke-miterlimit="10"/>
<path d="M40.2917 140.712V121.785" stroke="#5E5E5E" stroke-width="4" stroke-miterlimit="10"/>
<path d="M27.3983 91.8735C27.3983 91.8735 26.4231 90.0901 23.175 86.1819C19.927 82.2736 6.45288 71.744 6.45288 71.744C6.45288 71.744 14.0835 75.804 16.5196 77.9137C18.9556 80.0235 22.2112 82.6227 22.2112 82.6227C22.2112 82.6227 13.1046 72.7191 12.1446 72.0665C11.1846 71.4138 21.3916 79.8451 21.3916 79.8451C21.3916 79.8451 17.4947 72.0665 15.5444 69.4711C13.594 66.8757 9.85271 60.7021 9.85271 60.7021C9.85271 60.7021 20.4051 74.8288 20.8908 75.6409C21.3765 76.4529 23.49 80.0235 23.49 80.0235L19.7676 70.2831L24.321 78.2514C24.321 78.2514 17.8249 64.7773 17.4909 64.1285C17.157 63.4796 22.0443 70.4614 22.0443 70.4614L17.8173 57.7804L27.5614 77.7506L26.9126 69.9568L28.696 78.0769L29.1855 58.1067L30.3238 77.9137C30.3238 77.9137 32.111 65.2479 32.4335 62.6524C32.756 60.057 32.923 57.2947 32.923 57.2947C32.923 57.2947 32.5967 74.5025 32.5967 74.992C32.5967 75.4815 32.2703 79.3746 32.2703 79.3746L35.3666 70.1199C36.0193 68.1734 36.6681 61.5141 36.9906 60.5427C37.3132 59.5713 35.3666 75.4777 35.2073 76.1265C34.9183 77.186 34.5374 78.2182 34.0689 79.2114C33.5832 80.1866 37.6395 73.368 39.1042 70.4463L43.3084 62.0112C43.3084 62.0112 40.8724 70.1275 40.2235 71.5884C39.5747 73.0493 35.3666 80.8355 35.3666 80.8355C35.3666 80.8355 41.6996 73.368 44.4733 71.4176C47.2471 69.4673 52.2671 65.7259 52.2671 65.7259C52.2671 65.7259 44.1508 74.4911 42.5268 76.1152C40.9027 77.7392 36.1938 83.4195 36.1938 83.4195C36.1938 83.4195 44.3139 78.2249 44.7996 77.7278C45.2853 77.2307 51.1326 73.5084 51.1326 73.5084C51.1326 73.5084 39.3166 82.8389 38.7816 83.4309C34.0537 88.4661 32.4297 90.9022 31.4583 91.8735C30.4869 92.8449 28.8591 93.3344 27.3983 91.8735Z" fill="#92E3A9"/>
<path d="M33.0029 106.107C33.0029 106.107 32.3313 104.843 30.0167 102.088C27.702 99.3335 18.1855 91.8661 18.1855 91.8661C18.1855 91.8661 23.5851 94.7385 25.3077 96.2297C27.0304 97.7209 29.3261 99.5764 29.3261 99.5764C29.3261 99.5764 22.8755 92.5718 22.2077 92.1127C21.5398 91.6536 28.7531 97.626 28.7531 97.626C28.7531 97.626 25.9945 92.1127 24.6171 90.2762C23.2398 88.4397 20.5988 84.0571 20.5988 84.0571C20.5988 84.0571 28.0625 94.0479 28.4078 94.6436C28.7531 95.2393 30.2443 97.7437 30.2443 97.7437L27.5882 90.8529L30.8135 96.4611C30.8135 96.4611 26.226 86.9295 25.9945 86.4703C25.7631 86.0112 29.2122 90.9478 29.2122 90.9478L26.226 81.9929L33.1167 96.1158L32.6576 90.6025L33.9211 96.3473L34.2626 82.2206L35.0671 96.2297C35.0671 96.2297 36.3306 87.2748 36.5621 85.4383C36.7935 83.6017 36.9074 81.6438 36.9074 81.6438C36.9074 81.6438 36.6759 93.8164 36.6759 94.1655C36.6759 94.5146 36.4445 97.2656 36.4445 97.2656L38.6263 90.7201C39.0892 89.3427 39.5483 84.649 39.7646 83.9432C39.9809 83.2375 38.6263 94.507 38.5011 94.9699C38.2984 95.7197 38.0291 96.4498 37.6966 97.1517C37.3551 97.8385 40.2237 93.0158 41.2596 90.9478L44.2421 84.9791C44.2421 84.9791 42.5194 90.7201 42.0602 91.7522C41.6011 92.7843 38.6149 98.2977 38.6149 98.2977C38.6149 98.2977 43.0961 93.0158 45.0655 91.6384C47.0348 90.261 50.5788 87.6201 50.5788 87.6201C50.5788 87.6201 44.8378 93.8202 43.6881 94.9699C42.5384 96.1196 39.2106 100.134 39.2106 100.134C39.2106 100.134 44.9516 96.4611 45.2817 96.1158C45.6119 95.7706 49.7858 93.1258 49.7858 93.1258C49.7858 93.1258 41.438 99.713 41.0585 100.13C37.727 103.693 36.5811 105.416 35.8905 106.103C35.7126 106.312 35.4915 106.48 35.2424 106.595C34.9933 106.711 34.7221 106.771 34.4476 106.771C34.173 106.772 33.9017 106.712 33.6522 106.598C33.4028 106.483 33.1813 106.315 33.0029 106.107Z" fill="#92E3A9"/>
<path d="M38.8463 122.506C38.8463 122.506 38.1557 121.242 35.86 118.484C33.5644 115.725 24.0327 108.265 24.0327 108.265C24.0327 108.265 29.4284 111.134 31.1511 112.629C32.8738 114.124 35.1694 115.961 35.1694 115.961C35.1694 115.961 28.7416 108.952 28.051 108.493C27.3605 108.034 34.6079 113.995 34.6079 113.995C34.6079 113.995 31.8531 108.482 30.4757 106.645C29.0983 104.809 26.4536 100.445 26.4536 100.445C26.4536 100.445 33.9173 110.436 34.2626 111.009C34.6079 111.582 36.0991 114.109 36.0991 114.109L33.443 107.218L36.6645 112.857C36.6645 112.857 32.0694 103.325 31.8417 102.866C31.614 102.407 35.0556 107.347 35.0556 107.347L32.0694 98.3885L38.9601 112.515L38.501 107.002L39.7645 112.743L40.1098 98.6199L40.9142 112.629C40.9142 112.629 42.1968 103.67 42.4055 101.853C42.6142 100.035 42.7508 98.0583 42.7508 98.0583C42.7508 98.0583 42.5193 110.231 42.5193 110.58C42.5193 110.929 42.2916 113.68 42.2916 113.68L44.4734 107.116C44.9326 105.738 45.3917 101.045 45.6118 100.343C45.8319 99.6406 44.4734 110.906 44.352 111.366C44.1459 112.114 43.8768 112.844 43.5476 113.547C43.2023 114.238 46.0747 109.415 47.1068 107.347C48.1389 105.279 50.093 101.375 50.093 101.375C50.093 101.375 48.3703 107.116 47.9112 108.152C47.4521 109.187 44.4734 114.697 44.4734 114.697C44.4734 114.697 48.9509 109.415 50.905 108.034C52.8592 106.653 56.4146 104.016 56.4146 104.016C56.4146 104.016 50.6736 110.201 49.5239 111.366C48.3741 112.53 45.0464 116.534 45.0464 116.534C45.0464 116.534 50.7874 112.857 51.1175 112.515C51.4476 112.174 55.595 109.529 55.595 109.529C55.595 109.529 47.2472 116.112 46.8677 116.534C43.54 120.093 42.3903 121.815 41.6997 122.506C41.5216 122.709 41.3022 122.872 41.0562 122.983C40.8101 123.095 40.5431 123.153 40.273 123.153C40.0028 123.153 39.7358 123.095 39.4898 122.983C39.2437 122.872 39.0243 122.709 38.8463 122.506Z" fill="#92E3A9"/>
<path d="M46.1124 153.34C46.1124 161.005 44.0976 167.759 41.0165 171.861H27.3565C24.2791 167.774 22.2605 161.005 22.2605 153.34C22.2605 152.668 22.2605 152.004 22.306 151.352C22.3848 149.692 22.5648 148.038 22.8448 146.4C22.9473 145.8 23.0611 145.208 23.1901 144.632C23.2964 144.15 23.4064 143.683 23.5316 143.216C24.051 141.176 24.8008 139.202 25.7666 137.331H42.6064C43.5742 139.201 44.3278 141.174 44.8527 143.212C44.9779 143.679 45.0917 144.146 45.198 144.628C45.3232 145.205 45.437 145.796 45.5395 146.396C45.8157 148.034 45.9919 149.688 46.0669 151.348C46.0973 152.004 46.1124 152.668 46.1124 153.34Z" fill="white" stroke="#263238" stroke-miterlimit="10"/>
<path d="M44.8529 143.212H23.5167C23.3915 143.679 23.2814 144.146 23.1752 144.628H45.183C45.0919 144.15 44.9781 143.683 44.8529 143.212ZM45.5397 146.396H22.8451C22.5688 148.034 22.3927 149.688 22.3176 151.348H46.0671C45.9919 149.689 45.8158 148.037 45.5397 146.4V146.396Z" fill="#263238" stroke="#263238" stroke-miterlimit="10"/>
<path d="M52.8213 136.003L54.3391 132.713L57.8793 131.196L60.9149 131.704L62.4326 132.968C62.6069 133.366 62.6936 133.797 62.6869 134.231C62.6869 134.99 61.928 136.003 61.928 136.003C61.4582 136.624 60.9513 137.216 60.4102 137.775C59.6513 138.534 59.3971 138.534 58.6382 139.039C58.102 139.356 57.493 139.53 56.87 139.543C56.87 139.543 53.326 138.784 52.8213 136.003Z" fill="white" stroke="#263238" stroke-miterlimit="10"/>
<path d="M52.8213 136.003L57.1052 133.521L60.4557 134.516L59.4616 136.625L57.8489 137.991L56.7334 138.86L58.6382 139.039" stroke="#263238" stroke-miterlimit="10"/>
<path d="M57.105 133.522L57.8791 131.196L62.4324 132.968L61.4496 136.254L59.4613 136.625" stroke="#263238" stroke-miterlimit="10"/>
<path d="M54.4946 135.26V137.001L56.7334 138.117L57.3519 135.882L56.1111 135.51L55.614 136.128" stroke="#263238" stroke-miterlimit="10"/>
<path d="M62.9334 127.079L66.466 127.875L68.6896 131.021L68.83 134.095L67.9117 135.844C67.5574 136.096 67.154 136.27 66.7278 136.356C65.9689 136.515 64.8306 135.977 64.8306 135.977C64.1257 135.647 63.4414 135.274 62.7816 134.861C61.8785 134.277 61.8254 134.03 61.1728 133.396C60.7496 132.937 60.4517 132.376 60.3076 131.769C60.3076 131.769 60.319 128.152 62.9334 127.079Z" fill="white" stroke="#263238" stroke-miterlimit="10"/>
<path d="M62.9335 127.079L66.2536 130.748L65.9842 134.235L63.7113 133.704L62.038 132.41L60.9565 131.499L61.1804 133.4" stroke="#263238" stroke-miterlimit="10"/>
<path d="M66.2535 130.748L68.6895 131.021L67.9116 135.844L64.4928 135.571L63.7112 133.704" stroke="#263238" stroke-miterlimit="10"/>
<path d="M64.0111 128.562L62.3111 128.923L61.6851 131.344L63.9997 131.484L64.1059 130.19L63.3926 129.837" stroke="#263238" stroke-miterlimit="10"/>
<path d="M78.7905 165.16L82.232 164.021L85.7533 165.589L87.4456 168.157L87.5518 170.131C87.3757 170.529 87.1171 170.886 86.793 171.178C86.239 171.694 84.9792 171.823 84.9792 171.823C84.2052 171.901 83.4271 171.931 82.6494 171.914C81.5756 171.872 81.4048 171.69 80.5169 171.474C79.9193 171.296 79.3772 170.968 78.9422 170.521C78.9422 170.521 77.1057 167.421 78.7905 165.16Z" fill="white" stroke="#263238" stroke-miterlimit="10"/>
<path d="M78.7903 165.16L83.5182 166.617L85.0701 169.751L82.8466 170.457L80.7482 170.199L79.3519 169.971L80.5168 171.489" stroke="#263238" stroke-miterlimit="10"/>
<path d="M83.5183 166.617L85.7532 165.604L87.5518 170.146L84.4707 171.66L82.8467 170.457" stroke="#263238" stroke-miterlimit="10"/>
<path d="M80.4715 165.885L79.1965 167.065L79.8985 169.466L81.9589 168.4L81.3859 167.235L80.5929 167.296" stroke="#263238" stroke-miterlimit="10"/>
<path d="M76.0014 138.542L72.5864 139.733L69.0348 138.238L67.2931 135.7L67.1489 133.73C67.3156 133.33 67.5652 132.969 67.8813 132.672C68.4277 132.144 69.6836 131.989 69.6836 131.989C70.4567 131.895 71.2347 131.848 72.0134 131.848C73.0872 131.867 73.2618 132.049 74.1535 132.247C74.755 132.412 75.3039 132.73 75.7472 133.169C75.7472 133.169 77.652 136.242 76.0014 138.542Z" fill="white" stroke="#263238" stroke-miterlimit="10"/>
<path d="M76.0014 138.542L71.2394 137.179L69.6267 134.079L71.8389 133.328L73.941 133.54L75.3412 133.742L74.1459 132.247" stroke="#263238" stroke-miterlimit="10"/>
<path d="M71.2394 137.18L69.0272 138.238L67.1414 133.73L70.1883 132.156L71.8389 133.328" stroke="#263238" stroke-miterlimit="10"/>
<path d="M74.3016 137.851L75.5538 136.645L74.8063 134.258L72.7649 135.362L73.3606 136.516L74.1537 136.443" stroke="#263238" stroke-miterlimit="10"/>
<path d="M78.9498 134.561H51.3755L54.1341 171.781H76.1912L78.9498 134.561Z" fill="#92E3A9" stroke="#263238" stroke-miterlimit="10"/>
<path d="M122.024 104.657H105.575L106.148 95.1176L106.562 88.2117H121.034L121.451 95.1176L122.024 104.657Z" fill="white" stroke="#263238" stroke-miterlimit="10"/>
<path d="M121.451 95.1176H106.148L106.562 88.2117H121.034L121.451 95.1176Z" fill="#263238" stroke="#263238" stroke-miterlimit="10"/>
<path d="M126.301 103.014H101.299V105.647H126.301V103.014Z" fill="white" stroke="#263238" stroke-miterlimit="10"/>
<path d="M84.3529 45.4404H143.243C144.159 45.4404 145.037 45.8042 145.684 46.4518C146.332 47.0993 146.696 47.9776 146.696 48.8934V88.868C146.696 89.6529 146.384 90.4057 145.829 90.9608C145.274 91.5158 144.521 91.8276 143.736 91.8276H83.8596C83.0746 91.8276 82.3218 91.5158 81.7668 90.9608C81.2117 90.4057 80.8999 89.6529 80.8999 88.868V48.8972C80.8994 48.4434 80.9883 47.994 81.1617 47.5746C81.335 47.1553 81.5892 46.7742 81.9099 46.4531C82.2306 46.1321 82.6114 45.8774 83.0306 45.7036C83.4498 45.5299 83.8991 45.4404 84.3529 45.4404Z" fill="white" stroke="#263238" stroke-miterlimit="10"/>
<path d="M84.3529 45.4404H143.243C144.159 45.4404 145.037 45.8042 145.684 46.4518C146.332 47.0993 146.696 47.9776 146.696 48.8934V84.9179H80.8999V48.8972C80.8994 48.4434 80.9883 47.994 81.1617 47.5746C81.335 47.1553 81.5892 46.7742 81.9099 46.4531C82.2306 46.1321 82.6114 45.8774 83.0306 45.7036C83.4498 45.5299 83.8991 45.4404 84.3529 45.4404Z" fill="#263238" stroke="#263238" stroke-miterlimit="10"/>
<path d="M143.736 48.7302H83.8596V81.6281H143.736V48.7302Z" fill="white" stroke="#263238" stroke-miterlimit="10"/>
<path d="M87.4758 68.7158H93.547" stroke="#263238" stroke-miterlimit="10"/>
<path d="M87.4758 70.2334H93.547" stroke="#263238" stroke-miterlimit="10"/>
<path d="M87.4758 71.7512H93.547" stroke="#263238" stroke-miterlimit="10"/>
<path d="M87.4758 73.269H93.547" stroke="#263238" stroke-miterlimit="10"/>
<path d="M93.729 60.903L86.1628 53.9971" stroke="#263238" stroke-miterlimit="10"/>
<path d="M102.942 73.4055L95.376 60.9028L108.865 56.6265L102.942 73.4055ZM102.942 73.4055L126.631 72.419L135.514 54.3232L110.508 56.6265L125.314 70.4459" stroke="#263238" stroke-miterlimit="10"/>
<path d="M126.631 72.4189L139.79 78.012" stroke="#263238" stroke-miterlimit="10"/>
<path d="M95.3759 60.9028C95.3766 61.2286 95.2807 61.5474 95.1002 61.8187C94.9197 62.09 94.6627 62.3017 94.3619 62.4269C94.0611 62.5521 93.7298 62.5853 93.4101 62.5222C93.0904 62.4591 92.7966 62.3025 92.566 62.0724C92.3353 61.8422 92.178 61.5488 92.1142 61.2292C92.0503 60.9097 92.0827 60.5784 92.2073 60.2772C92.3318 59.9761 92.5429 59.7187 92.8138 59.5376C93.0847 59.3564 93.4032 59.2598 93.7291 59.2598C94.1652 59.2598 94.5835 59.4327 94.8922 59.7408C95.2009 60.0488 95.3749 60.4667 95.3759 60.9028Z" fill="white" stroke="#263238" stroke-miterlimit="10"/>
<path d="M128.274 72.419C128.274 72.7449 128.177 73.0634 127.996 73.3343C127.815 73.6052 127.557 73.8163 127.256 73.9408C126.955 74.0653 126.624 74.0977 126.304 74.0339C125.985 73.97 125.691 73.8128 125.461 73.5821C125.231 73.3514 125.075 73.0577 125.011 72.738C124.948 72.4183 124.981 72.087 125.107 71.7862C125.232 71.4853 125.444 71.2284 125.715 71.0479C125.986 70.8674 126.305 70.7715 126.631 70.7722C127.067 70.7732 127.485 70.9472 127.793 71.2559C128.101 71.5646 128.274 71.9829 128.274 72.419Z" fill="white" stroke="#263238" stroke-miterlimit="10"/>
<path d="M110.497 56.6264C110.497 56.9524 110.401 57.2713 110.221 57.5427C110.04 57.8141 109.783 58.0258 109.482 58.1509C109.181 58.276 108.849 58.309 108.53 58.2455C108.21 58.1821 107.916 58.0252 107.685 57.7946C107.455 57.5641 107.298 57.2703 107.235 56.9505C107.171 56.6307 107.204 56.2993 107.329 55.9982C107.454 55.6972 107.666 55.44 107.937 55.2594C108.209 55.0787 108.528 54.9827 108.854 54.9834C109.289 54.9834 109.707 55.1565 110.015 55.4646C110.324 55.7728 110.497 56.1907 110.497 56.6264Z" fill="white" stroke="#263238" stroke-miterlimit="10"/>
<path d="M137.157 54.3234C137.157 54.6495 137.061 54.9684 136.881 55.2398C136.7 55.5112 136.443 55.7228 136.142 55.8479C135.841 55.973 135.509 56.006 135.189 55.9425C134.87 55.8791 134.576 55.7222 134.345 55.4917C134.115 55.2611 133.958 54.9674 133.894 54.6476C133.831 54.3278 133.864 53.9963 133.989 53.6953C134.114 53.3942 134.326 53.137 134.597 52.9564C134.869 52.7757 135.188 52.6797 135.514 52.6804C135.949 52.6804 136.367 52.8535 136.675 53.1616C136.984 53.4698 137.157 53.8877 137.157 54.3234Z" fill="white" stroke="#263238" stroke-miterlimit="10"/>
<path d="M104.589 73.3942C104.589 73.7201 104.494 74.0388 104.313 74.3102C104.133 74.5815 103.876 74.7931 103.575 74.9184C103.274 75.0436 102.943 75.0767 102.623 75.0136C102.303 74.9505 102.01 74.794 101.779 74.5638C101.548 74.3337 101.391 74.0402 101.327 73.7207C101.263 73.4011 101.296 73.0698 101.42 72.7687C101.545 72.4676 101.756 72.2101 102.027 72.029C102.298 71.8479 102.616 71.7512 102.942 71.7512C103.378 71.7512 103.796 71.9242 104.105 72.2322C104.414 72.5402 104.588 72.9581 104.589 73.3942Z" fill="white" stroke="#263238" stroke-miterlimit="10"/>
<path d="M82.8884 47.5691L82.7366 52.4867H88.1133L88.2651 47.8764L82.8884 47.5691Z" fill="#92E3A9" stroke="#263238" stroke-miterlimit="10"/>
<path d="M142.586 50.8589L142.435 55.7727H147.811L147.967 51.1662L142.586 50.8589Z" fill="#92E3A9" stroke="#263238" stroke-miterlimit="10"/>
<path d="M78.278 57.8635L78.1262 62.7811H83.503L83.6547 58.1709L78.278 57.8635Z" fill="#92E3A9" stroke="#263238" stroke-miterlimit="10"/>
<path d="M79.0484 64.1624L78.8928 69.08H84.2696L84.4251 64.4697L79.0484 64.1624Z" fill="#92E3A9" stroke="#263238" stroke-miterlimit="10"/>
<path d="M80.9305 97.0261H55.2231C54.091 97.0261 53.0052 97.4759 52.2046 98.2764C51.4041 99.077 50.9543 100.163 50.9543 101.295C50.9543 102.427 51.4041 103.513 52.2046 104.313C53.0052 105.114 54.091 105.564 55.2231 105.564H80.9305C78.4945 100.764 80.9305 97.0261 80.9305 97.0261Z" fill="#263238" stroke="#263238" stroke-width="3" stroke-miterlimit="10"/>
<path d="M92.7274 97.0261H67.02C65.8878 97.0261 64.8021 97.4759 64.0015 98.2764C63.201 99.077 62.7512 100.163 62.7512 101.295C62.7512 102.427 63.201 103.513 64.0015 104.313C64.8021 105.114 65.8878 105.564 67.02 105.564H92.7274C90.2876 100.764 92.7274 97.0261 92.7274 97.0261Z" fill="white" stroke="#263238" stroke-miterlimit="10"/>
<path d="M93.475 106.133H67.0201C65.737 106.133 64.5064 105.623 63.5991 104.716C62.6918 103.808 62.1821 102.578 62.1821 101.295C62.1821 100.012 62.6918 98.7811 63.5991 97.8738C64.5064 96.9665 65.737 96.4568 67.0201 96.4568H93.475C93.6259 96.4568 93.7707 96.5167 93.8774 96.6235C93.9842 96.7302 94.0442 96.875 94.0442 97.026C94.0442 97.1769 93.9842 97.3217 93.8774 97.4284C93.7707 97.5352 93.6259 97.5951 93.475 97.5951H67.0201C66.0389 97.5951 65.0979 97.9849 64.4041 98.6787C63.7102 99.3725 63.3205 100.314 63.3205 101.295C63.3205 102.276 63.7102 103.217 64.4041 103.911C65.0979 104.605 66.0389 104.994 67.0201 104.994H93.475C93.6259 104.994 93.7707 105.054 93.8774 105.161C93.9842 105.268 94.0442 105.413 94.0442 105.563C94.0442 105.714 93.9842 105.859 93.8774 105.966C93.7707 106.073 93.6259 106.133 93.475 106.133Z" fill="#263238"/>
<path d="M65.7756 97.7014V104.531" stroke="#263238" stroke-miterlimit="10"/>
<path d="M65.7756 100.005H71.2245" stroke="#263238" stroke-miterlimit="10"/>
<path d="M67.54 101.386H71.4559" stroke="#263238" stroke-miterlimit="10"/>
<path d="M65.9309 102.843H74.218" stroke="#263238" stroke-miterlimit="10"/>
<path d="M64.0679 86.853H89.7753C92.1354 86.853 94.0441 89.0159 94.0441 91.6796C94.0441 94.3433 92.1468 96.5099 89.7753 96.5099H64.0679C66.5077 91.0801 64.0679 86.853 64.0679 86.853Z" fill="#92E3A9" stroke="#263238" stroke-miterlimit="10"/>
<path d="M52.2749 87.4106H77.9823C79.1145 87.4106 80.2003 87.8604 81.0008 88.6609C81.8013 89.4615 82.2511 90.5473 82.2511 91.6794C82.2511 92.8116 81.8013 93.8973 81.0008 94.6979C80.2003 95.4984 79.1145 95.9482 77.9823 95.9482H52.2749C54.7185 91.152 52.2749 87.4106 52.2749 87.4106Z" fill="white" stroke="#263238" stroke-miterlimit="10"/>
<path d="M51.5235 96.5174H77.9822C79.2653 96.5174 80.4959 96.0077 81.4032 95.1004C82.3105 94.1931 82.8202 92.9626 82.8202 91.6795C82.8202 90.3964 82.3105 89.1658 81.4032 88.2585C80.4959 87.3513 79.2653 86.8416 77.9822 86.8416H51.5235C51.3726 86.8416 51.2278 86.9015 51.121 87.0083C51.0143 87.115 50.9543 87.2598 50.9543 87.4107C50.9543 87.5617 51.0143 87.7064 51.121 87.8132C51.2278 87.9199 51.3726 87.9799 51.5235 87.9799H77.9822C78.9634 87.9799 79.9044 88.3697 80.5982 89.0635C81.2921 89.7573 81.6818 90.6983 81.6818 91.6795C81.6818 92.6607 81.2921 93.6017 80.5982 94.2955C79.9044 94.9893 78.9634 95.3791 77.9822 95.3791H51.5235C51.3726 95.3791 51.2278 95.439 51.121 95.5458C51.0143 95.6525 50.9543 95.7973 50.9543 95.9482C50.9543 96.0992 51.0143 96.244 51.121 96.3507C51.2278 96.4574 51.3726 96.5174 51.5235 96.5174Z" fill="#92E3A9" stroke="#263238" stroke-miterlimit="10"/>
<path d="M79.2231 88.0901V94.9163" stroke="#263238" stroke-miterlimit="10"/>
<path d="M79.2231 90.3894H73.7781" stroke="#263238" stroke-miterlimit="10"/>
<path d="M77.4585 91.7708H73.5464" stroke="#263238" stroke-miterlimit="10"/>
<path d="M79.0713 93.2278H70.7842" stroke="#263238" stroke-miterlimit="10"/>
<path d="M221.765 83.2598C220.305 82.8803 218.696 82.0342 215.778 82.0342C213.254 82.0342 211.881 83.2977 211.558 83.6354C211.236 83.2977 209.862 82.0342 207.339 82.0342C204.425 82.0342 202.812 82.8765 201.355 83.2598C200.037 83.5585 198.705 83.789 197.363 83.9504V87.2516H225.753V83.9504C224.413 83.7892 223.082 83.5587 221.765 83.2598Z" fill="white" stroke="#263238" stroke-miterlimit="10"/>
<path d="M211.559 86.2687C210.084 85.1416 208.272 84.5465 206.417 84.5802C204.264 84.6857 202.128 85.0202 200.046 85.5782" stroke="#263238" stroke-miterlimit="10"/>
<path d="M212.188 85.6539C212.188 85.6539 213.494 84.5156 216.639 84.8116C219.785 85.1075 224.387 85.9499 224.387 85.9499" stroke="#263238" stroke-miterlimit="10"/>
<path d="M214.245 84.121C214.245 84.121 214.86 83.8136 217.159 84.121" stroke="#263238" stroke-miterlimit="10"/>
<path d="M211.714 85.9612C211.714 85.9612 211.482 84.2727 208.644 83.5821C206.655 83.1117 204.571 83.2438 202.656 83.9616" stroke="#263238" stroke-miterlimit="10"/>
<path d="M226.137 81.7419C222.684 81.2031 219.538 77.1354 215.857 78.2889C212.177 79.4425 211.558 83.6391 211.558 83.6391C212.1 82.63 212.932 81.8065 213.947 81.2749C214.961 80.7433 216.112 80.528 217.25 80.6567C221.314 81.0361 222.851 83.419 226.379 83.419" stroke="#263238" stroke-miterlimit="10"/>
<path d="M225.848 87.4336H200.141C199.009 87.4336 197.923 87.8833 197.122 88.6839C196.322 89.4844 195.872 90.5702 195.872 91.7024C195.872 92.8345 196.322 93.9203 197.122 94.7208C197.923 95.5214 199.009 95.9711 200.141 95.9711H225.848C223.412 91.1711 225.848 87.4336 225.848 87.4336Z" fill="white" stroke="#263238" stroke-miterlimit="10"/>
<path d="M226.607 96.5404H200.141C198.858 96.5404 197.627 96.0307 196.72 95.1234C195.813 94.2161 195.303 92.9855 195.303 91.7024C195.303 90.4193 195.813 89.1888 196.72 88.2815C197.627 87.3742 198.858 86.8645 200.141 86.8645H226.607C226.758 86.8645 226.903 86.9245 227.01 87.0312C227.116 87.1379 227.176 87.2827 227.176 87.4337C227.176 87.5846 227.116 87.7294 227.01 87.8361C226.903 87.9429 226.758 88.0028 226.607 88.0028H200.141C199.16 88.0028 198.219 88.3926 197.525 89.0864C196.831 89.7802 196.441 90.7212 196.441 91.7024C196.441 92.6836 196.831 93.6246 197.525 94.3184C198.219 95.0122 199.16 95.402 200.141 95.402H226.607C226.758 95.402 226.903 95.462 227.01 95.5687C227.116 95.6755 227.176 95.8202 227.176 95.9712C227.176 96.1221 227.116 96.2669 227.01 96.3737C226.903 96.4804 226.758 96.5404 226.607 96.5404Z" fill="#263238"/>
<path d="M198.9 88.1089V94.9389" stroke="#263238" stroke-miterlimit="10"/>
<path d="M198.9 90.4121H204.345" stroke="#263238" stroke-miterlimit="10"/>
<path d="M200.665 91.7935H204.577" stroke="#263238" stroke-miterlimit="10"/>
<path d="M199.052 93.2505H207.339" stroke="#263238" stroke-miterlimit="10"/>
<path d="M223.317 97.0261H197.61C196.478 97.0261 195.392 97.4759 194.592 98.2764C193.791 99.077 193.341 100.163 193.341 101.295C193.341 102.427 193.791 103.513 194.592 104.313C195.392 105.114 196.478 105.564 197.61 105.564H223.317C220.881 100.764 223.317 97.0261 223.317 97.0261Z" fill="white" stroke="#263238" stroke-miterlimit="10"/>
<path d="M224.069 106.133H197.61C196.327 106.133 195.096 105.623 194.189 104.716C193.282 103.808 192.772 102.578 192.772 101.295C192.772 100.012 193.282 98.7811 194.189 97.8738C195.096 96.9665 196.327 96.4568 197.61 96.4568H224.069C224.22 96.4568 224.364 96.5167 224.471 96.6235C224.578 96.7302 224.638 96.875 224.638 97.026C224.638 97.1769 224.578 97.3217 224.471 97.4284C224.364 97.5352 224.22 97.5951 224.069 97.5951H197.61C196.629 97.5951 195.688 97.9849 194.994 98.6787C194.3 99.3725 193.91 100.314 193.91 101.295C193.91 102.276 194.3 103.217 194.994 103.911C195.688 104.605 196.629 104.994 197.61 104.994H224.069C224.22 104.994 224.364 105.054 224.471 105.161C224.578 105.268 224.638 105.413 224.638 105.563C224.638 105.714 224.578 105.859 224.471 105.966C224.364 106.073 224.22 106.133 224.069 106.133Z" fill="#92E3A9" stroke="#263238" stroke-miterlimit="10"/>
<path d="M196.369 97.7014V104.531" stroke="#263238" stroke-miterlimit="10"/>
<path d="M196.369 100.005H201.818" stroke="#263238" stroke-miterlimit="10"/>
<path d="M198.134 101.386H202.046" stroke="#263238" stroke-miterlimit="10"/>
<path d="M196.521 102.843H204.808" stroke="#263238" stroke-miterlimit="10"/>
<path opacity="0.2" d="M230.022 110.577L228.921 108.171H226.747H222.896H48.203L46.7498 170.533L56.9948 114.375L139.714 172.051H226.986H230.022H261.516L230.022 110.577Z" fill="black"/>
<path d="M224.865 171.861H226.986V106.93H221.674L224.865 171.861Z" fill="white" stroke="#263238" stroke-miterlimit="10"/>
<path d="M47.7324 171.861H45.6113V106.93H50.9236L47.7324 171.861Z" fill="white" stroke="#263238" stroke-miterlimit="10"/>
<path d="M50.8554 108.213H45.5508V110.114H50.8554V108.213Z" fill="#263238"/>
<path d="M224.82 106.437H187.748V164.765H224.82V106.437Z" fill="white" stroke="#263238" stroke-miterlimit="10"/>
<path d="M226.986 108.171H187.638V111.343H226.986V108.171Z" fill="#263238" stroke="#263238" stroke-miterlimit="10"/>
<path d="M229.642 105.647H43.7141V108.683H229.642V105.647Z" fill="white" stroke="#263238" stroke-miterlimit="10"/>
<path d="M222.592 129.856H190.711V145.55H222.592V129.856Z" fill="white" stroke="#263238" stroke-miterlimit="10"/>
<path d="M210.731 136.58H203.316V138.822H210.731V136.58Z" fill="#263238" stroke="#263238" stroke-miterlimit="10"/>
<path d="M222.592 147.341H190.711V163.035H222.592V147.341Z" fill="white" stroke="#263238" stroke-miterlimit="10"/>
<path d="M210.731 154.069H203.316V156.311H210.731V154.069Z" fill="#263238" stroke="#263238" stroke-miterlimit="10"/>
<path d="M194.062 128.133L200.869 136.785H226.827V118.628L222.289 114.09L194.062 128.133Z" fill="#263238" stroke="#263238" stroke-miterlimit="10"/>
<path d="M222.592 112.371H190.711V128.065H222.592V112.371Z" fill="white" stroke="#263238" stroke-miterlimit="10"/>
<path d="M210.731 119.095H203.316V121.337H210.731V119.095Z" fill="#263238" stroke="#263238" stroke-miterlimit="10"/>
<path d="M163.93 163.418L173.363 169.732C173.52 169.824 173.65 169.956 173.741 170.115C173.831 170.273 173.879 170.452 173.879 170.635C173.878 170.781 173.847 170.925 173.787 171.058C173.727 171.191 173.64 171.31 173.532 171.408C173.423 171.505 173.295 171.579 173.156 171.624C173.018 171.67 172.871 171.685 172.726 171.671L157.028 170.001C156.84 169.981 156.66 169.919 156.5 169.818C156.341 169.717 156.207 169.58 156.109 169.419C156.012 169.257 155.953 169.076 155.937 168.888C155.921 168.7 155.949 168.511 156.019 168.335L157.999 162.526L163.93 163.418Z" fill="white" stroke="#263238" stroke-miterlimit="10"/>
<path d="M115.43 161.805L105.276 169.815C105.119 169.908 104.988 170.041 104.898 170.2C104.808 170.359 104.76 170.539 104.76 170.722C104.76 170.869 104.791 171.014 104.851 171.149C104.911 171.283 104.999 171.403 105.108 171.502C105.217 171.6 105.346 171.674 105.486 171.72C105.626 171.765 105.774 171.781 105.921 171.765L121.618 170.096C121.806 170.075 121.986 170.012 122.145 169.911C122.304 169.81 122.437 169.673 122.535 169.512C122.633 169.351 122.693 169.17 122.709 168.982C122.726 168.795 122.699 168.606 122.631 168.43L121.69 161.805H115.43Z" fill="white" stroke="#263238" stroke-miterlimit="10"/>
<path d="M122.502 88.2683C122.502 88.2683 121.364 84.9823 120.985 84.0944C120.605 83.2065 117.702 84.3486 117.702 84.3486C117.702 84.3486 116.185 83.5897 115.555 83.9691C114.925 84.3486 114.416 85.4869 114.416 85.4869C114.416 85.4869 112.899 84.9823 112.519 85.8664C112.282 86.434 112.113 87.0275 112.015 87.6346C112.015 87.6346 111.001 88.014 111.001 88.5187C111.001 89.0234 110.497 91.5542 111.51 91.9337C112.523 92.3131 112.519 89.9113 112.519 89.9113C112.519 89.9113 113.783 91.6795 114.667 92.3131C115.551 92.9468 117.824 92.8178 117.824 92.8178L122.502 88.2683Z" fill="white" stroke="#263238" stroke-miterlimit="10"/>
<path d="M122.639 87.6346C121.93 87.4205 121.169 87.4662 120.491 87.7636C119.482 88.2683 116.196 92.6964 115.691 93.6981C115.187 94.6999 114.932 96.7337 115.312 97.2346C115.691 97.7354 116.321 96.8551 116.321 96.8551C116.321 96.8551 117.08 96.2252 117.585 95.8458C118.59 95.2201 119.705 94.7913 120.871 94.5822C122.259 94.3318 125.045 89.7823 125.045 89.7823L124.794 88.7729L122.639 87.6346Z" fill="white" stroke="#263238" stroke-miterlimit="10"/>
<path d="M184.895 85.1115C184.895 85.1115 194.62 79.7993 195.758 79.4199C196.897 79.0404 200.938 77.7769 202.831 77.7769C204.725 77.7769 205.734 77.7769 205.988 78.1563C206.242 78.5357 209.024 80.0535 209.65 80.5544C210.276 81.0553 211.293 82.3226 210.534 82.4516C209.775 82.5806 208.515 81.9432 208.136 81.9432H204.721C204.091 81.9432 201.564 82.8273 200.3 83.3357C199.037 83.8442 195.747 83.4609 195.747 83.4609L188.674 91.8087L184.895 85.1115Z" fill="white" stroke="#263238" stroke-miterlimit="10"/>
<path d="M125.864 111.718C125.864 111.718 121.88 113.615 121.311 115.702C120.742 117.789 115.429 161.805 115.429 161.805H121.69L135.35 124.05C135.35 124.05 130.987 110.39 125.864 111.718Z" fill="#263238" stroke="#263238" stroke-miterlimit="10"/>
<path d="M123.762 120.351L121.88 117.22" stroke="#8A8A8A" stroke-miterlimit="10"/>
<path d="M126.164 106.58C126.164 106.58 123.777 118.833 123.777 120.35C123.777 121.868 127.314 125.147 129.211 125.663C131.108 126.179 170.639 128.565 170.639 128.565L158.007 162.541C158.467 163.035 159.042 163.409 159.68 163.629C160.319 163.85 161.002 163.91 161.669 163.804L163.945 163.425C163.945 163.425 171.254 151.18 172.138 148.904C173.022 146.627 185.149 125.158 185.149 123.139C185.149 121.121 183.381 119.853 183.381 119.853L156.603 112.151L154.96 111.392L126.164 106.58Z" fill="#263238" stroke="#263238" stroke-miterlimit="10"/>
<path d="M170.624 128.558L179.176 128.793" stroke="#8A8A8A" stroke-miterlimit="10"/>
<path d="M142.962 62.8796C142.962 62.8796 131.469 62.375 131.089 63.6385C130.71 64.9021 128.71 75.1319 128.71 75.1319C128.71 75.1319 121.258 89.9075 118.981 92.6889C116.704 95.4702 117.342 99.2571 121.004 100.141C124.665 101.025 127.572 98.6234 127.572 98.6234C127.572 98.6234 125.174 105.833 125.803 107.085C126.433 108.337 138.435 111.509 144.874 112.018C151.314 112.526 154.979 112.397 155.992 111.513C157.005 110.629 158.269 100.889 159.028 99.6403C159.787 98.3919 161.934 89.5357 161.934 89.5357C161.934 89.5357 171.28 101.409 173.697 101.534C176.114 101.659 186.2 94.4609 186.2 94.4609C186.2 94.4609 184.557 90.6664 183.164 89.0272C181.772 87.388 179.628 87.5094 179.628 87.5094L176.346 89.2777C176.346 89.2777 170.533 80.3114 169.648 78.5432C168.764 76.7749 169.398 72.6048 168.639 71.7131C167.88 70.8214 161.809 70.5748 161.809 70.5748L143.873 62.6064L142.962 62.8796Z" fill="white" stroke="#263238" stroke-miterlimit="10"/>
<path d="M149.022 74.5781C145.842 76.9686 140.014 81.8749 138.712 86.5117" stroke="#263238" stroke-miterlimit="10"/>
<path d="M151.097 73.0903C151.097 73.0903 150.676 73.3711 149.986 73.8492" stroke="#263238" stroke-miterlimit="10"/>
<path d="M137.392 83.9768C137.124 84.4426 136.959 84.96 136.906 85.4946" stroke="#263238" stroke-miterlimit="10"/>
<path d="M140.003 80.061C139.175 81.1017 138.414 82.1942 137.726 83.3319" stroke="#263238" stroke-miterlimit="10"/>
<path d="M175.803 49.1095C175.803 49.1095 175.928 52.0123 175.424 53.4048C174.919 54.7974 173.401 55.9281 173.401 56.5618C173.401 57.1955 175.678 61.2328 175.169 61.6122C174.661 61.9917 171.508 62.4963 171.508 62.4963C171.508 62.4963 168.222 67.6758 167.713 67.93C167.205 68.1842 161.399 66.0328 161.399 66.0328L159.881 67.5506L150.54 62.7695L154.581 59.2331C154.581 59.2331 157.487 55.4387 157.237 51.5266C156.986 47.6145 156.098 44.2033 160.902 41.9304C165.706 39.6575 171.147 41.2967 174.164 44.0743C177.18 46.8518 175.803 49.1095 175.803 49.1095Z" fill="white" stroke="#263238" stroke-miterlimit="10"/>
<path d="M164.306 56.319H166.583L166.708 52.7826C166.708 52.7826 170.882 52.6574 171.379 52.0237C171.876 51.39 170.749 48.6087 171.887 48.3621C173.026 48.1154 176.308 50.005 176.308 50.005C176.308 50.005 179.465 49.7508 179.085 45.0723C178.706 40.3937 171.633 37.3657 165.949 37.3657C160.265 37.3657 155.594 40.9022 155.089 44.4386C154.584 47.975 155.214 52.6498 155.34 55.3021C155.465 57.9544 152.683 59.9769 154.201 60.6143C155.719 61.2518 161.79 59.0966 162.792 57.8368C163.794 56.577 164.306 56.319 164.306 56.319Z" fill="#263238" stroke="#263238" stroke-miterlimit="10"/>
<path d="M164.814 56.8162C164.814 56.8162 163.676 51.8834 162.538 53.4011C161.399 54.9189 161.399 58.4516 162.287 59.4723C163.175 60.493 163.93 59.7265 163.93 59.7265" fill="white"/>
<path d="M164.814 56.8162C164.814 56.8162 163.676 51.8834 162.538 53.4011C161.399 54.9189 161.399 58.4516 162.287 59.4723C163.175 60.493 163.93 59.7265 163.93 59.7265" stroke="#263238" stroke-miterlimit="10"/>
<path d="M164.181 55.0479L175.803 56.8161" stroke="#263238" stroke-miterlimit="10"/>
<path d="M174.904 59.7036C175.332 59.3914 175.681 58.9839 175.924 58.5133C176.168 58.0428 176.298 57.5221 176.305 56.9925C176.313 56.4628 176.197 55.9387 175.967 55.4616C175.737 54.9845 175.399 54.5674 174.98 54.2434" stroke="#263238" stroke-miterlimit="10"/>
<path d="M161.654 69.4479C161.654 69.4479 157.742 64.8946 155.203 63.3768C152.665 61.859 147.614 60.0946 146.096 60.5992C144.579 61.1039 142.939 62.8759 142.939 62.8759C142.939 62.8759 148.749 65.1526 153.674 67.4293C156.514 68.7608 159.474 69.8191 162.515 70.59L161.654 69.4479Z" fill="white" stroke="#263238" stroke-miterlimit="10"/>
<path d="M132.702 68.1994L133.112 65.7861" stroke="#263238" stroke-miterlimit="10"/>
<path d="M127.553 98.6234L132.334 70.3623" stroke="#263238" stroke-miterlimit="10"/>
<path d="M130.205 83.9731L128.816 76.1414" stroke="#263238" stroke-miterlimit="10"/>
<path d="M127.735 82.167L126.923 80.6909" stroke="#263238" stroke-miterlimit="10"/>
<path d="M129.7 85.7413L128.539 83.6316" stroke="#263238" stroke-miterlimit="10"/>
<path d="M167.25 83.1991L168.727 81.446" stroke="#263238" stroke-miterlimit="10"/>
<path d="M163.801 82.7095L161.908 89.5319L166.04 84.6333" stroke="#263238" stroke-miterlimit="10"/>
<path d="M169.971 85.8855L171.128 85.3618" stroke="#263238" stroke-miterlimit="10"/>
<path d="M161.908 89.5318L168.647 86.4849" stroke="#263238" stroke-miterlimit="10"/>
<path d="M179.465 94.8365C178.581 93.8233 176.308 89.2776 176.308 89.2776L180.728 93.5729" stroke="#263238" stroke-miterlimit="10"/>
<path d="M178.327 87.8888C178.327 87.8888 181.233 89.786 182.88 92.1841C184.527 94.5822 184.519 96.9841 184.777 97.614C184.94 98.1036 185.024 98.6158 185.028 99.1317L189.702 95.8495C190.966 94.9654 191.47 95.0907 191.091 93.8271C190.712 92.5635 187.934 87.1337 185.661 85.0999C183.388 83.066 181.745 84.4662 181.745 84.4662L177.45 87.6232C177.45 87.6232 176.938 87.7636 178.327 87.8888Z" fill="white" stroke="#263238" stroke-miterlimit="10"/>
<path d="M162.033 90.3591H123.853V116.575H162.033V90.3591Z" fill="#92E3A9" stroke="#263238" stroke-miterlimit="10"/>
<path d="M160.098 126.251H125.439V132.937H160.098V126.251Z" fill="#92E3A9" stroke="#263238" stroke-miterlimit="10"/>
<path d="M125.614 90.3591H123.853V171.86H125.614V90.3591Z" fill="white" stroke="#263238" stroke-miterlimit="10"/>
<path d="M161.859 90.3591H160.098V171.86H161.859V90.3591Z" fill="white" stroke="#263238" stroke-miterlimit="10"/>
<path d="M9.18481 171.861H264.552" stroke="#263238" stroke-miterlimit="10"/>
</svg>
